<svg xmlns="http://www.w3.org/2000/svg" viewBox="0 0 220 220">
  <defs>
    
  </defs>
  <rect x="3" y="3" width="214" height="214" fill="none" stroke="currentColor" stroke-width="3"></rect>
  <rect x="14" y="14" width="192" height="192" fill="none" stroke="currentColor" stroke-width="1"></rect>
  <g transform="translate(58,30) scale(2.45)">
    <path class="bn" d="M 22,10 C 32.5,11 38.5,18 38,39 L 15,39 C 15,30 25,32.5 23,18"></path>
    <path class="bn" d="M 24,18 C 24.38,20.91 18.45,25.37 16,27 C 13,29 13.18,31.34 11,31 C 9.958,30.06 12.41,27.96 11,28 C 10,28 11.19,29.23 10,30 C 9,30 5.997,31 6,26 C 6,24 12,14 12,14 C 12,14 13.89,12.1 14,10.5 C 13.27,9.506 13.5,8.5 13.5,7.5 C 14.5,5.5 16.5,4 16.5,4 C 16.5,4 18,2.74 18,4 C 18,5 16.503,5.252 17,6 C 18,7 21,9 21,9 L 24,18 z"></path>
    <circle class="eye" cx="9" cy="25.5" r="0.9"></circle>
  </g>
  <line x1="40" y1="160" x2="180" y2="160" stroke="currentColor" stroke-width="1"></line>
  <text x="110" y="184" font-family="&#39;Source Serif 4&#39;, Georgia, serif" font-size="18" font-weight="700" text-anchor="middle" letter-spacing="0.02em" fill="currentColor">BÍLOČERNÝ</text>
  <text x="110" y="202" font-family="&#39;Inter Tight&#39;, sans-serif" font-size="10" font-weight="500" text-anchor="middle" letter-spacing="0.28em" fill="#7A1F2B">OŘECHOV · 2025</text>
</svg>